<mxfile host="app.diagrams.net" agent="Mozilla/5.0 (Windows NT 10.0; Win64; x64) AppleWebKit/537.36 (KHTML, like Gecko) Chrome/132.0.0.0 Safari/537.36 OPR/117.0.0.0" version="26.2.14">
  <diagram name="PÃ¡gina-1" id="IXEq3cjt-beu3OnLgmeM">
    <mxGraphModel grid="1" page="1" gridSize="10" guides="1" tooltips="1" connect="1" arrows="1" fold="1" pageScale="1" pageWidth="827" pageHeight="1169" math="0" shadow="0">
      <root>
        <mxCell id="0" />
        <mxCell id="1" parent="0" />
        <mxCell id="GXpUL18i9NJPy3ACHUed-1" value="Producto" style="swimlane;fontStyle=0;childLayout=stackLayout;horizontal=1;startSize=26;fillColor=none;horizontalStack=0;resizeParent=1;resizeParentMax=0;resizeLast=0;collapsible=1;marginBottom=0;whiteSpace=wrap;html=1;" vertex="1" parent="1">
          <mxGeometry x="170" y="1310" width="280" height="190" as="geometry" />
        </mxCell>
        <mxCell id="GXpUL18i9NJPy3ACHUed-2" value="+marca: string" style="text;strokeColor=none;fillColor=none;align=left;verticalAlign=top;spacingLeft=4;spacingRight=4;overflow=hidden;rotatable=0;points=[[0,0.5],[1,0.5]];portConstraint=eastwest;whiteSpace=wrap;html=1;" vertex="1" parent="GXpUL18i9NJPy3ACHUed-1">
          <mxGeometry y="26" width="280" height="26" as="geometry" />
        </mxCell>
        <mxCell id="GXpUL18i9NJPy3ACHUed-3" value="+ sabor: string&amp;nbsp;" style="text;strokeColor=none;fillColor=none;align=left;verticalAlign=top;spacingLeft=4;spacingRight=4;overflow=hidden;rotatable=0;points=[[0,0.5],[1,0.5]];portConstraint=eastwest;whiteSpace=wrap;html=1;" vertex="1" parent="GXpUL18i9NJPy3ACHUed-1">
          <mxGeometry y="52" width="280" height="26" as="geometry" />
        </mxCell>
        <mxCell id="GXpUL18i9NJPy3ACHUed-4" value="+peso: int;" style="text;strokeColor=none;fillColor=none;align=left;verticalAlign=top;spacingLeft=4;spacingRight=4;overflow=hidden;rotatable=0;points=[[0,0.5],[1,0.5]];portConstraint=eastwest;whiteSpace=wrap;html=1;" vertex="1" parent="GXpUL18i9NJPy3ACHUed-1">
          <mxGeometry y="78" width="280" height="26" as="geometry" />
        </mxCell>
        <mxCell id="GXpUL18i9NJPy3ACHUed-5" value="+cantidadStock: int" style="text;strokeColor=none;fillColor=none;align=left;verticalAlign=top;spacingLeft=4;spacingRight=4;overflow=hidden;rotatable=0;points=[[0,0.5],[1,0.5]];portConstraint=eastwest;whiteSpace=wrap;html=1;" vertex="1" parent="GXpUL18i9NJPy3ACHUed-1">
          <mxGeometry y="104" width="280" height="26" as="geometry" />
        </mxCell>
        <mxCell id="GXpUL18i9NJPy3ACHUed-6" value="&lt;div&gt;+precio: int&lt;/div&gt;" style="text;strokeColor=none;fillColor=none;align=left;verticalAlign=top;spacingLeft=4;spacingRight=4;overflow=hidden;rotatable=0;points=[[0,0.5],[1,0.5]];portConstraint=eastwest;whiteSpace=wrap;html=1;" vertex="1" parent="GXpUL18i9NJPy3ACHUed-1">
          <mxGeometry y="130" width="280" height="26" as="geometry" />
        </mxCell>
        <mxCell id="GXpUL18i9NJPy3ACHUed-8" value="+VentaProducto()&lt;div&gt;&lt;br&gt;&lt;/div&gt;" style="text;strokeColor=none;fillColor=none;align=left;verticalAlign=top;spacingLeft=4;spacingRight=4;overflow=hidden;rotatable=0;points=[[0,0.5],[1,0.5]];portConstraint=eastwest;whiteSpace=wrap;html=1;" vertex="1" parent="GXpUL18i9NJPy3ACHUed-1">
          <mxGeometry y="156" width="280" height="34" as="geometry" />
        </mxCell>
        <mxCell id="GXpUL18i9NJPy3ACHUed-9" value="Bebida" style="swimlane;fontStyle=0;childLayout=stackLayout;horizontal=1;startSize=26;fillColor=none;horizontalStack=0;resizeParent=1;resizeParentMax=0;resizeLast=0;collapsible=1;marginBottom=0;whiteSpace=wrap;html=1;" vertex="1" parent="1">
          <mxGeometry x="40" y="1670" width="140" height="52" as="geometry" />
        </mxCell>
        <mxCell id="GXpUL18i9NJPy3ACHUed-10" value="Alimento" style="swimlane;fontStyle=0;childLayout=stackLayout;horizontal=1;startSize=26;fillColor=none;horizontalStack=0;resizeParent=1;resizeParentMax=0;resizeLast=0;collapsible=1;marginBottom=0;whiteSpace=wrap;html=1;" vertex="1" parent="1">
          <mxGeometry x="400" y="1670" width="140" height="56" as="geometry" />
        </mxCell>
        <mxCell id="GXpUL18i9NJPy3ACHUed-17" value="+VentaProducto()" style="text;html=1;align=left;verticalAlign=middle;resizable=0;points=[];autosize=1;strokeColor=none;fillColor=none;" vertex="1" parent="GXpUL18i9NJPy3ACHUed-10">
          <mxGeometry y="26" width="140" height="30" as="geometry" />
        </mxCell>
        <mxCell id="GXpUL18i9NJPy3ACHUed-18" value="+VentaProducto()" style="text;html=1;align=left;verticalAlign=middle;resizable=0;points=[];autosize=1;strokeColor=none;fillColor=none;" vertex="1" parent="1">
          <mxGeometry x="45" y="1692" width="120" height="30" as="geometry" />
        </mxCell>
        <mxCell id="GXpUL18i9NJPy3ACHUed-27" value="Figura" style="swimlane;fontStyle=0;childLayout=stackLayout;horizontal=1;startSize=26;fillColor=none;horizontalStack=0;resizeParent=1;resizeParentMax=0;resizeLast=0;collapsible=1;marginBottom=0;whiteSpace=wrap;html=1;" vertex="1" parent="1">
          <mxGeometry x="710" y="1310" width="280" height="104" as="geometry" />
        </mxCell>
        <mxCell id="GXpUL18i9NJPy3ACHUed-28" value="+basesita: int" style="text;strokeColor=none;fillColor=none;align=left;verticalAlign=top;spacingLeft=4;spacingRight=4;overflow=hidden;rotatable=0;points=[[0,0.5],[1,0.5]];portConstraint=eastwest;whiteSpace=wrap;html=1;" vertex="1" parent="GXpUL18i9NJPy3ACHUed-27">
          <mxGeometry y="26" width="280" height="26" as="geometry" />
        </mxCell>
        <mxCell id="GXpUL18i9NJPy3ACHUed-29" value="+ altura: int" style="text;strokeColor=none;fillColor=none;align=left;verticalAlign=top;spacingLeft=4;spacingRight=4;overflow=hidden;rotatable=0;points=[[0,0.5],[1,0.5]];portConstraint=eastwest;whiteSpace=wrap;html=1;" vertex="1" parent="GXpUL18i9NJPy3ACHUed-27">
          <mxGeometry y="52" width="280" height="26" as="geometry" />
        </mxCell>
        <mxCell id="GXpUL18i9NJPy3ACHUed-30" value="+radio:int" style="text;strokeColor=none;fillColor=none;align=left;verticalAlign=top;spacingLeft=4;spacingRight=4;overflow=hidden;rotatable=0;points=[[0,0.5],[1,0.5]];portConstraint=eastwest;whiteSpace=wrap;html=1;" vertex="1" parent="GXpUL18i9NJPy3ACHUed-27">
          <mxGeometry y="78" width="280" height="26" as="geometry" />
        </mxCell>
        <mxCell id="GXpUL18i9NJPy3ACHUed-34" value="Cuadrado" style="swimlane;fontStyle=0;childLayout=stackLayout;horizontal=1;startSize=26;fillColor=none;horizontalStack=0;resizeParent=1;resizeParentMax=0;resizeLast=0;collapsible=1;marginBottom=0;whiteSpace=wrap;html=1;" vertex="1" parent="1">
          <mxGeometry x="600" y="1670" width="140" height="52" as="geometry" />
        </mxCell>
        <mxCell id="GXpUL18i9NJPy3ACHUed-35" value="Circulo" style="swimlane;fontStyle=0;childLayout=stackLayout;horizontal=1;startSize=26;fillColor=none;horizontalStack=0;resizeParent=1;resizeParentMax=0;resizeLast=0;collapsible=1;marginBottom=0;whiteSpace=wrap;html=1;" vertex="1" parent="1">
          <mxGeometry x="960" y="1670" width="140" height="56" as="geometry" />
        </mxCell>
        <mxCell id="GXpUL18i9NJPy3ACHUed-36" value="+mostrarArea" style="text;html=1;align=left;verticalAlign=middle;resizable=0;points=[];autosize=1;strokeColor=none;fillColor=none;" vertex="1" parent="GXpUL18i9NJPy3ACHUed-35">
          <mxGeometry y="26" width="140" height="30" as="geometry" />
        </mxCell>
        <mxCell id="GXpUL18i9NJPy3ACHUed-37" value="+mostrarArea()" style="text;html=1;align=left;verticalAlign=middle;resizable=0;points=[];autosize=1;strokeColor=none;fillColor=none;" vertex="1" parent="1">
          <mxGeometry x="605" y="1692" width="100" height="30" as="geometry" />
        </mxCell>
        <mxCell id="GXpUL18i9NJPy3ACHUed-42" value="" style="endArrow=none;html=1;rounded=0;" edge="1" parent="1">
          <mxGeometry width="50" height="50" relative="1" as="geometry">
            <mxPoint x="120" y="1580" as="sourcePoint" />
            <mxPoint x="320" y="1580" as="targetPoint" />
          </mxGeometry>
        </mxCell>
        <mxCell id="GXpUL18i9NJPy3ACHUed-43" value="" style="endArrow=none;html=1;rounded=0;exitX=0.571;exitY=0;exitDx=0;exitDy=0;exitPerimeter=0;" edge="1" parent="1" source="GXpUL18i9NJPy3ACHUed-9">
          <mxGeometry width="50" height="50" relative="1" as="geometry">
            <mxPoint x="70" y="1630" as="sourcePoint" />
            <mxPoint x="120" y="1580" as="targetPoint" />
          </mxGeometry>
        </mxCell>
        <mxCell id="GXpUL18i9NJPy3ACHUed-44" value="" style="endArrow=none;html=1;rounded=0;" edge="1" parent="1">
          <mxGeometry width="50" height="50" relative="1" as="geometry">
            <mxPoint x="320" y="1580" as="sourcePoint" />
            <mxPoint x="480" y="1580" as="targetPoint" />
          </mxGeometry>
        </mxCell>
        <mxCell id="GXpUL18i9NJPy3ACHUed-45" value="" style="endArrow=none;html=1;rounded=0;exitX=0.564;exitY=-0.036;exitDx=0;exitDy=0;exitPerimeter=0;" edge="1" parent="1" source="GXpUL18i9NJPy3ACHUed-10">
          <mxGeometry width="50" height="50" relative="1" as="geometry">
            <mxPoint x="430" y="1630" as="sourcePoint" />
            <mxPoint x="480" y="1580" as="targetPoint" />
          </mxGeometry>
        </mxCell>
        <mxCell id="GXpUL18i9NJPy3ACHUed-46" value="Extends" style="endArrow=block;endSize=16;endFill=0;html=1;rounded=0;entryX=0.486;entryY=1.059;entryDx=0;entryDy=0;entryPerimeter=0;" edge="1" parent="1" target="GXpUL18i9NJPy3ACHUed-8">
          <mxGeometry width="160" relative="1" as="geometry">
            <mxPoint x="306" y="1580" as="sourcePoint" />
            <mxPoint x="360" y="1560" as="targetPoint" />
          </mxGeometry>
        </mxCell>
        <mxCell id="GXpUL18i9NJPy3ACHUed-47" value="Extends" style="endArrow=block;endSize=16;endFill=0;html=1;rounded=0;" edge="1" parent="1">
          <mxGeometry width="160" relative="1" as="geometry">
            <mxPoint x="850.12" y="1550" as="sourcePoint" />
            <mxPoint x="850" y="1420" as="targetPoint" />
          </mxGeometry>
        </mxCell>
        <mxCell id="GXpUL18i9NJPy3ACHUed-48" value="" style="endArrow=none;html=1;rounded=0;exitX=0.5;exitY=0;exitDx=0;exitDy=0;" edge="1" parent="1" source="GXpUL18i9NJPy3ACHUed-34">
          <mxGeometry width="50" height="50" relative="1" as="geometry">
            <mxPoint x="670" y="1670" as="sourcePoint" />
            <mxPoint x="670" y="1550" as="targetPoint" />
          </mxGeometry>
        </mxCell>
        <mxCell id="GXpUL18i9NJPy3ACHUed-49" value="" style="endArrow=none;html=1;rounded=0;" edge="1" parent="1">
          <mxGeometry width="50" height="50" relative="1" as="geometry">
            <mxPoint x="670" y="1550" as="sourcePoint" />
            <mxPoint x="880" y="1550" as="targetPoint" />
          </mxGeometry>
        </mxCell>
        <mxCell id="GXpUL18i9NJPy3ACHUed-50" value="" style="endArrow=none;html=1;rounded=0;" edge="1" parent="1">
          <mxGeometry width="50" height="50" relative="1" as="geometry">
            <mxPoint x="880" y="1550" as="sourcePoint" />
            <mxPoint x="1030" y="1550" as="targetPoint" />
          </mxGeometry>
        </mxCell>
        <mxCell id="GXpUL18i9NJPy3ACHUed-51" value="" style="endArrow=none;html=1;rounded=0;exitX=0.5;exitY=0;exitDx=0;exitDy=0;" edge="1" parent="1" source="GXpUL18i9NJPy3ACHUed-35">
          <mxGeometry width="50" height="50" relative="1" as="geometry">
            <mxPoint x="970" y="1600" as="sourcePoint" />
            <mxPoint x="1030" y="1550" as="targetPoint" />
          </mxGeometry>
        </mxCell>
        <mxCell id="GXpUL18i9NJPy3ACHUed-53" value="Triangulo" style="swimlane;fontStyle=0;childLayout=stackLayout;horizontal=1;startSize=26;fillColor=none;horizontalStack=0;resizeParent=1;resizeParentMax=0;resizeLast=0;collapsible=1;marginBottom=0;whiteSpace=wrap;html=1;" vertex="1" parent="1">
          <mxGeometry x="780" y="1670" width="140" height="56" as="geometry" />
        </mxCell>
        <mxCell id="GXpUL18i9NJPy3ACHUed-54" value="+&lt;span style=&quot;background-color: transparent; color: light-dark(rgb(0, 0, 0), rgb(255, 255, 255));&quot;&gt;mostrarArea()&lt;/span&gt;" style="text;html=1;align=left;verticalAlign=middle;resizable=0;points=[];autosize=1;strokeColor=none;fillColor=none;" vertex="1" parent="GXpUL18i9NJPy3ACHUed-53">
          <mxGeometry y="26" width="140" height="30" as="geometry" />
        </mxCell>
        <mxCell id="GXpUL18i9NJPy3ACHUed-55" value="" style="endArrow=none;html=1;rounded=0;exitX=0.5;exitY=0;exitDx=0;exitDy=0;" edge="1" parent="1" source="GXpUL18i9NJPy3ACHUed-53">
          <mxGeometry width="50" height="50" relative="1" as="geometry">
            <mxPoint x="800" y="1600" as="sourcePoint" />
            <mxPoint x="850" y="1550" as="targetPoint" />
          </mxGeometry>
        </mxCell>
        <mxCell id="GXpUL18i9NJPy3ACHUed-56" value="Cuenta" style="swimlane;fontStyle=0;childLayout=stackLayout;horizontal=1;startSize=26;fillColor=none;horizontalStack=0;resizeParent=1;resizeParentMax=0;resizeLast=0;collapsible=1;marginBottom=0;whiteSpace=wrap;html=1;" vertex="1" parent="1">
          <mxGeometry x="1200" y="1310" width="280" height="238" as="geometry" />
        </mxCell>
        <mxCell id="GXpUL18i9NJPy3ACHUed-57" value="+nro_cuenta:int" style="text;strokeColor=none;fillColor=none;align=left;verticalAlign=top;spacingLeft=4;spacingRight=4;overflow=hidden;rotatable=0;points=[[0,0.5],[1,0.5]];portConstraint=eastwest;whiteSpace=wrap;html=1;" vertex="1" parent="GXpUL18i9NJPy3ACHUed-56">
          <mxGeometry y="26" width="280" height="26" as="geometry" />
        </mxCell>
        <mxCell id="GXpUL18i9NJPy3ACHUed-58" value="+nombre:string" style="text;strokeColor=none;fillColor=none;align=left;verticalAlign=top;spacingLeft=4;spacingRight=4;overflow=hidden;rotatable=0;points=[[0,0.5],[1,0.5]];portConstraint=eastwest;whiteSpace=wrap;html=1;" vertex="1" parent="GXpUL18i9NJPy3ACHUed-56">
          <mxGeometry y="52" width="280" height="26" as="geometry" />
        </mxCell>
        <mxCell id="GXpUL18i9NJPy3ACHUed-74" value="+saldo:int" style="text;strokeColor=none;fillColor=none;align=left;verticalAlign=top;spacingLeft=4;spacingRight=4;overflow=hidden;rotatable=0;points=[[0,0.5],[1,0.5]];portConstraint=eastwest;whiteSpace=wrap;html=1;" vertex="1" parent="GXpUL18i9NJPy3ACHUed-56">
          <mxGeometry y="78" width="280" height="32" as="geometry" />
        </mxCell>
        <mxCell id="GXpUL18i9NJPy3ACHUed-72" value="+estado_cuenta:stirng" style="text;strokeColor=none;fillColor=none;align=left;verticalAlign=top;spacingLeft=4;spacingRight=4;overflow=hidden;rotatable=0;points=[[0,0.5],[1,0.5]];portConstraint=eastwest;whiteSpace=wrap;html=1;" vertex="1" parent="GXpUL18i9NJPy3ACHUed-56">
          <mxGeometry y="110" width="280" height="32" as="geometry" />
        </mxCell>
        <mxCell id="GXpUL18i9NJPy3ACHUed-75" value="+ingresarMonto()" style="text;strokeColor=none;fillColor=none;align=left;verticalAlign=top;spacingLeft=4;spacingRight=4;overflow=hidden;rotatable=0;points=[[0,0.5],[1,0.5]];portConstraint=eastwest;whiteSpace=wrap;html=1;" vertex="1" parent="GXpUL18i9NJPy3ACHUed-56">
          <mxGeometry y="142" width="280" height="32" as="geometry" />
        </mxCell>
        <mxCell id="GXpUL18i9NJPy3ACHUed-59" value="+retirarMonto()" style="text;strokeColor=none;fillColor=none;align=left;verticalAlign=top;spacingLeft=4;spacingRight=4;overflow=hidden;rotatable=0;points=[[0,0.5],[1,0.5]];portConstraint=eastwest;whiteSpace=wrap;html=1;" vertex="1" parent="GXpUL18i9NJPy3ACHUed-56">
          <mxGeometry y="174" width="280" height="32" as="geometry" />
        </mxCell>
        <mxCell id="GXpUL18i9NJPy3ACHUed-73" value="+mostrarInfo()" style="text;strokeColor=none;fillColor=none;align=left;verticalAlign=top;spacingLeft=4;spacingRight=4;overflow=hidden;rotatable=0;points=[[0,0.5],[1,0.5]];portConstraint=eastwest;whiteSpace=wrap;html=1;" vertex="1" parent="GXpUL18i9NJPy3ACHUed-56">
          <mxGeometry y="206" width="280" height="32" as="geometry" />
        </mxCell>
        <mxCell id="GXpUL18i9NJPy3ACHUed-60" value="CuentaMayor" style="swimlane;fontStyle=0;childLayout=stackLayout;horizontal=1;startSize=26;fillColor=none;horizontalStack=0;resizeParent=1;resizeParentMax=0;resizeLast=0;collapsible=1;marginBottom=0;whiteSpace=wrap;html=1;" vertex="1" parent="1">
          <mxGeometry x="1101" y="1780" width="140" height="152" as="geometry" />
        </mxCell>
        <mxCell id="GXpUL18i9NJPy3ACHUed-63" value="+esMayor()" style="text;html=1;align=left;verticalAlign=middle;resizable=0;points=[];autosize=1;strokeColor=none;fillColor=none;" vertex="1" parent="GXpUL18i9NJPy3ACHUed-60">
          <mxGeometry y="26" width="140" height="30" as="geometry" />
        </mxCell>
        <mxCell id="GXpUL18i9NJPy3ACHUed-76" value="+ingresarMonto()" style="text;strokeColor=none;fillColor=none;align=left;verticalAlign=top;spacingLeft=4;spacingRight=4;overflow=hidden;rotatable=0;points=[[0,0.5],[1,0.5]];portConstraint=eastwest;whiteSpace=wrap;html=1;" vertex="1" parent="GXpUL18i9NJPy3ACHUed-60">
          <mxGeometry y="56" width="140" height="32" as="geometry" />
        </mxCell>
        <mxCell id="GXpUL18i9NJPy3ACHUed-77" value="+retirarMonto()" style="text;strokeColor=none;fillColor=none;align=left;verticalAlign=top;spacingLeft=4;spacingRight=4;overflow=hidden;rotatable=0;points=[[0,0.5],[1,0.5]];portConstraint=eastwest;whiteSpace=wrap;html=1;" vertex="1" parent="GXpUL18i9NJPy3ACHUed-60">
          <mxGeometry y="88" width="140" height="32" as="geometry" />
        </mxCell>
        <mxCell id="GXpUL18i9NJPy3ACHUed-78" value="+mostrarInfo()" style="text;strokeColor=none;fillColor=none;align=left;verticalAlign=top;spacingLeft=4;spacingRight=4;overflow=hidden;rotatable=0;points=[[0,0.5],[1,0.5]];portConstraint=eastwest;whiteSpace=wrap;html=1;" vertex="1" parent="GXpUL18i9NJPy3ACHUed-60">
          <mxGeometry y="120" width="140" height="32" as="geometry" />
        </mxCell>
        <mxCell id="GXpUL18i9NJPy3ACHUed-61" value="CuentaMenor" style="swimlane;fontStyle=0;childLayout=stackLayout;horizontal=1;startSize=26;fillColor=none;horizontalStack=0;resizeParent=1;resizeParentMax=0;resizeLast=0;collapsible=1;marginBottom=0;whiteSpace=wrap;html=1;" vertex="1" parent="1">
          <mxGeometry x="1470" y="1768" width="140" height="122" as="geometry" />
        </mxCell>
        <mxCell id="GXpUL18i9NJPy3ACHUed-83" value="+ingresarMonto()" style="text;strokeColor=none;fillColor=none;align=left;verticalAlign=top;spacingLeft=4;spacingRight=4;overflow=hidden;rotatable=0;points=[[0,0.5],[1,0.5]];portConstraint=eastwest;whiteSpace=wrap;html=1;" vertex="1" parent="GXpUL18i9NJPy3ACHUed-61">
          <mxGeometry y="26" width="140" height="32" as="geometry" />
        </mxCell>
        <mxCell id="GXpUL18i9NJPy3ACHUed-84" value="+retirarMonto()" style="text;strokeColor=none;fillColor=none;align=left;verticalAlign=top;spacingLeft=4;spacingRight=4;overflow=hidden;rotatable=0;points=[[0,0.5],[1,0.5]];portConstraint=eastwest;whiteSpace=wrap;html=1;" vertex="1" parent="GXpUL18i9NJPy3ACHUed-61">
          <mxGeometry y="58" width="140" height="32" as="geometry" />
        </mxCell>
        <mxCell id="GXpUL18i9NJPy3ACHUed-85" value="+mostrarInfo()" style="text;strokeColor=none;fillColor=none;align=left;verticalAlign=top;spacingLeft=4;spacingRight=4;overflow=hidden;rotatable=0;points=[[0,0.5],[1,0.5]];portConstraint=eastwest;whiteSpace=wrap;html=1;" vertex="1" parent="GXpUL18i9NJPy3ACHUed-61">
          <mxGeometry y="90" width="140" height="32" as="geometry" />
        </mxCell>
        <mxCell id="GXpUL18i9NJPy3ACHUed-64" value="Extends" style="endArrow=block;endSize=16;endFill=0;html=1;rounded=0;" edge="1" parent="1">
          <mxGeometry width="160" relative="1" as="geometry">
            <mxPoint x="1359.62" y="1650" as="sourcePoint" />
            <mxPoint x="1359.5" y="1550" as="targetPoint" />
          </mxGeometry>
        </mxCell>
        <mxCell id="GXpUL18i9NJPy3ACHUed-65" value="" style="endArrow=none;html=1;rounded=0;exitX=0.5;exitY=0;exitDx=0;exitDy=0;" edge="1" parent="1">
          <mxGeometry width="50" height="50" relative="1" as="geometry">
            <mxPoint x="1170" y="1780" as="sourcePoint" />
            <mxPoint x="1170" y="1650" as="targetPoint" />
          </mxGeometry>
        </mxCell>
        <mxCell id="GXpUL18i9NJPy3ACHUed-66" value="" style="endArrow=none;html=1;rounded=0;" edge="1" parent="1">
          <mxGeometry width="50" height="50" relative="1" as="geometry">
            <mxPoint x="1170" y="1650" as="sourcePoint" />
            <mxPoint x="1390" y="1650" as="targetPoint" />
          </mxGeometry>
        </mxCell>
        <mxCell id="GXpUL18i9NJPy3ACHUed-67" value="" style="endArrow=none;html=1;rounded=0;" edge="1" parent="1">
          <mxGeometry width="50" height="50" relative="1" as="geometry">
            <mxPoint x="1390" y="1650" as="sourcePoint" />
            <mxPoint x="1540" y="1650" as="targetPoint" />
          </mxGeometry>
        </mxCell>
        <mxCell id="GXpUL18i9NJPy3ACHUed-68" value="" style="endArrow=none;html=1;rounded=0;exitX=0.5;exitY=0;exitDx=0;exitDy=0;" edge="1" parent="1" source="GXpUL18i9NJPy3ACHUed-61">
          <mxGeometry width="50" height="50" relative="1" as="geometry">
            <mxPoint x="1480" y="1700" as="sourcePoint" />
            <mxPoint x="1540" y="1650" as="targetPoint" />
          </mxGeometry>
        </mxCell>
        <mxCell id="GXpUL18i9NJPy3ACHUed-69" value="CuentaEstudiante" style="swimlane;fontStyle=0;childLayout=stackLayout;horizontal=1;startSize=26;fillColor=none;horizontalStack=0;resizeParent=1;resizeParentMax=0;resizeLast=0;collapsible=1;marginBottom=0;whiteSpace=wrap;html=1;" vertex="1" parent="1">
          <mxGeometry x="1290" y="1770" width="140" height="122" as="geometry" />
        </mxCell>
        <mxCell id="GXpUL18i9NJPy3ACHUed-80" value="+ingresarMonto()" style="text;strokeColor=none;fillColor=none;align=left;verticalAlign=top;spacingLeft=4;spacingRight=4;overflow=hidden;rotatable=0;points=[[0,0.5],[1,0.5]];portConstraint=eastwest;whiteSpace=wrap;html=1;" vertex="1" parent="GXpUL18i9NJPy3ACHUed-69">
          <mxGeometry y="26" width="140" height="32" as="geometry" />
        </mxCell>
        <mxCell id="GXpUL18i9NJPy3ACHUed-81" value="+retirarMonto()" style="text;strokeColor=none;fillColor=none;align=left;verticalAlign=top;spacingLeft=4;spacingRight=4;overflow=hidden;rotatable=0;points=[[0,0.5],[1,0.5]];portConstraint=eastwest;whiteSpace=wrap;html=1;" vertex="1" parent="GXpUL18i9NJPy3ACHUed-69">
          <mxGeometry y="58" width="140" height="32" as="geometry" />
        </mxCell>
        <mxCell id="GXpUL18i9NJPy3ACHUed-82" value="+mostrarInfo()" style="text;strokeColor=none;fillColor=none;align=left;verticalAlign=top;spacingLeft=4;spacingRight=4;overflow=hidden;rotatable=0;points=[[0,0.5],[1,0.5]];portConstraint=eastwest;whiteSpace=wrap;html=1;" vertex="1" parent="GXpUL18i9NJPy3ACHUed-69">
          <mxGeometry y="90" width="140" height="32" as="geometry" />
        </mxCell>
        <mxCell id="GXpUL18i9NJPy3ACHUed-71" value="" style="endArrow=none;html=1;rounded=0;exitX=0.5;exitY=0;exitDx=0;exitDy=0;" edge="1" parent="1" source="GXpUL18i9NJPy3ACHUed-69">
          <mxGeometry width="50" height="50" relative="1" as="geometry">
            <mxPoint x="1310" y="1700" as="sourcePoint" />
            <mxPoint x="1360" y="1650" as="targetPoint" />
          </mxGeometry>
        </mxCell>
        <mxCell id="GXpUL18i9NJPy3ACHUed-86" value="Empleado" style="swimlane;fontStyle=0;childLayout=stackLayout;horizontal=1;startSize=26;fillColor=none;horizontalStack=0;resizeParent=1;resizeParentMax=0;resizeLast=0;collapsible=1;marginBottom=0;whiteSpace=wrap;html=1;" vertex="1" parent="1">
          <mxGeometry x="175" y="2050" width="280" height="190" as="geometry" />
        </mxCell>
        <mxCell id="GXpUL18i9NJPy3ACHUed-87" value="+nombre:string" style="text;strokeColor=none;fillColor=none;align=left;verticalAlign=top;spacingLeft=4;spacingRight=4;overflow=hidden;rotatable=0;points=[[0,0.5],[1,0.5]];portConstraint=eastwest;whiteSpace=wrap;html=1;" vertex="1" parent="GXpUL18i9NJPy3ACHUed-86">
          <mxGeometry y="26" width="280" height="26" as="geometry" />
        </mxCell>
        <mxCell id="GXpUL18i9NJPy3ACHUed-88" value="+ apellido: string&amp;nbsp;" style="text;strokeColor=none;fillColor=none;align=left;verticalAlign=top;spacingLeft=4;spacingRight=4;overflow=hidden;rotatable=0;points=[[0,0.5],[1,0.5]];portConstraint=eastwest;whiteSpace=wrap;html=1;" vertex="1" parent="GXpUL18i9NJPy3ACHUed-86">
          <mxGeometry y="52" width="280" height="26" as="geometry" />
        </mxCell>
        <mxCell id="GXpUL18i9NJPy3ACHUed-89" value="+telefono: string" style="text;strokeColor=none;fillColor=none;align=left;verticalAlign=top;spacingLeft=4;spacingRight=4;overflow=hidden;rotatable=0;points=[[0,0.5],[1,0.5]];portConstraint=eastwest;whiteSpace=wrap;html=1;" vertex="1" parent="GXpUL18i9NJPy3ACHUed-86">
          <mxGeometry y="78" width="280" height="26" as="geometry" />
        </mxCell>
        <mxCell id="GXpUL18i9NJPy3ACHUed-90" value="+email: string&amp;nbsp;" style="text;strokeColor=none;fillColor=none;align=left;verticalAlign=top;spacingLeft=4;spacingRight=4;overflow=hidden;rotatable=0;points=[[0,0.5],[1,0.5]];portConstraint=eastwest;whiteSpace=wrap;html=1;" vertex="1" parent="GXpUL18i9NJPy3ACHUed-86">
          <mxGeometry y="104" width="280" height="26" as="geometry" />
        </mxCell>
        <mxCell id="GXpUL18i9NJPy3ACHUed-91" value="&lt;div&gt;+dni: int&lt;/div&gt;" style="text;strokeColor=none;fillColor=none;align=left;verticalAlign=top;spacingLeft=4;spacingRight=4;overflow=hidden;rotatable=0;points=[[0,0.5],[1,0.5]];portConstraint=eastwest;whiteSpace=wrap;html=1;" vertex="1" parent="GXpUL18i9NJPy3ACHUed-86">
          <mxGeometry y="130" width="280" height="26" as="geometry" />
        </mxCell>
        <mxCell id="GXpUL18i9NJPy3ACHUed-92" value="+sueldo: int&lt;div&gt;&lt;br&gt;&lt;/div&gt;" style="text;strokeColor=none;fillColor=none;align=left;verticalAlign=top;spacingLeft=4;spacingRight=4;overflow=hidden;rotatable=0;points=[[0,0.5],[1,0.5]];portConstraint=eastwest;whiteSpace=wrap;html=1;" vertex="1" parent="GXpUL18i9NJPy3ACHUed-86">
          <mxGeometry y="156" width="280" height="34" as="geometry" />
        </mxCell>
        <mxCell id="GXpUL18i9NJPy3ACHUed-93" value="DtoSistema" style="swimlane;fontStyle=0;childLayout=stackLayout;horizontal=1;startSize=26;fillColor=none;horizontalStack=0;resizeParent=1;resizeParentMax=0;resizeLast=0;collapsible=1;marginBottom=0;whiteSpace=wrap;html=1;" vertex="1" parent="1">
          <mxGeometry x="30" y="2400" width="170" height="146" as="geometry" />
        </mxCell>
        <mxCell id="GXpUL18i9NJPy3ACHUed-96" value="+area: string" style="text;html=1;align=left;verticalAlign=middle;resizable=0;points=[];autosize=1;strokeColor=none;fillColor=none;" vertex="1" parent="GXpUL18i9NJPy3ACHUed-93">
          <mxGeometry y="26" width="170" height="30" as="geometry" />
        </mxCell>
        <mxCell id="GXpUL18i9NJPy3ACHUed-106" value="+tituloTrabajo: string" style="text;html=1;align=left;verticalAlign=middle;resizable=0;points=[];autosize=1;strokeColor=none;fillColor=none;" vertex="1" parent="GXpUL18i9NJPy3ACHUed-93">
          <mxGeometry y="56" width="170" height="30" as="geometry" />
        </mxCell>
        <mxCell id="GXpUL18i9NJPy3ACHUed-107" value="+computadoraLaboral: bool" style="text;html=1;align=left;verticalAlign=middle;resizable=0;points=[];autosize=1;strokeColor=none;fillColor=none;" vertex="1" parent="GXpUL18i9NJPy3ACHUed-93">
          <mxGeometry y="86" width="170" height="30" as="geometry" />
        </mxCell>
        <mxCell id="GXpUL18i9NJPy3ACHUed-108" value="+cantidadDeGente:int" style="text;html=1;align=left;verticalAlign=middle;resizable=0;points=[];autosize=1;strokeColor=none;fillColor=none;" vertex="1" parent="GXpUL18i9NJPy3ACHUed-93">
          <mxGeometry y="116" width="170" height="30" as="geometry" />
        </mxCell>
        <mxCell id="GXpUL18i9NJPy3ACHUed-94" value="Programador" style="swimlane;fontStyle=0;childLayout=stackLayout;horizontal=1;startSize=26;fillColor=none;horizontalStack=0;resizeParent=1;resizeParentMax=0;resizeLast=0;collapsible=1;marginBottom=0;whiteSpace=wrap;html=1;" vertex="1" parent="1">
          <mxGeometry x="385" y="2410" width="190" height="146" as="geometry" />
        </mxCell>
        <mxCell id="GXpUL18i9NJPy3ACHUed-95" value="+lenguajeProgramacion: string" style="text;html=1;align=left;verticalAlign=middle;resizable=0;points=[];autosize=1;strokeColor=none;fillColor=none;" vertex="1" parent="GXpUL18i9NJPy3ACHUed-94">
          <mxGeometry y="26" width="190" height="30" as="geometry" />
        </mxCell>
        <mxCell id="GXpUL18i9NJPy3ACHUed-111" value="+tipoDeDesarrollador:string" style="text;html=1;align=left;verticalAlign=middle;resizable=0;points=[];autosize=1;strokeColor=none;fillColor=none;" vertex="1" parent="GXpUL18i9NJPy3ACHUed-94">
          <mxGeometry y="56" width="190" height="30" as="geometry" />
        </mxCell>
        <mxCell id="GXpUL18i9NJPy3ACHUed-112" value="+produccion: int" style="text;html=1;align=left;verticalAlign=middle;resizable=0;points=[];autosize=1;strokeColor=none;fillColor=none;" vertex="1" parent="GXpUL18i9NJPy3ACHUed-94">
          <mxGeometry y="86" width="190" height="30" as="geometry" />
        </mxCell>
        <mxCell id="GXpUL18i9NJPy3ACHUed-113" value="+mostrarInfo()" style="text;html=1;align=left;verticalAlign=middle;resizable=0;points=[];autosize=1;strokeColor=none;fillColor=none;" vertex="1" parent="GXpUL18i9NJPy3ACHUed-94">
          <mxGeometry y="116" width="190" height="30" as="geometry" />
        </mxCell>
        <mxCell id="GXpUL18i9NJPy3ACHUed-99" value="" style="endArrow=none;html=1;rounded=0;" edge="1" parent="1">
          <mxGeometry width="50" height="50" relative="1" as="geometry">
            <mxPoint x="310" y="2320" as="sourcePoint" />
            <mxPoint x="470" y="2320" as="targetPoint" />
            <Array as="points">
              <mxPoint x="360" y="2320" />
            </Array>
          </mxGeometry>
        </mxCell>
        <mxCell id="GXpUL18i9NJPy3ACHUed-101" value="Extends" style="endArrow=block;endSize=16;endFill=0;html=1;rounded=0;entryX=0.486;entryY=1.059;entryDx=0;entryDy=0;entryPerimeter=0;" edge="1" parent="1" target="GXpUL18i9NJPy3ACHUed-92">
          <mxGeometry width="160" relative="1" as="geometry">
            <mxPoint x="311" y="2320" as="sourcePoint" />
            <mxPoint x="365" y="2300" as="targetPoint" />
          </mxGeometry>
        </mxCell>
        <mxCell id="GXpUL18i9NJPy3ACHUed-110" value="" style="endArrow=none;html=1;rounded=0;" edge="1" parent="1">
          <mxGeometry width="50" height="50" relative="1" as="geometry">
            <mxPoint x="469.47" y="2410" as="sourcePoint" />
            <mxPoint x="469.47" y="2320" as="targetPoint" />
          </mxGeometry>
        </mxCell>
        <mxCell id="GXpUL18i9NJPy3ACHUed-114" value="1" style="endArrow=open;html=1;endSize=12;startArrow=diamondThin;startSize=14;startFill=0;edgeStyle=orthogonalEdgeStyle;align=left;verticalAlign=bottom;rounded=0;entryX=0.308;entryY=1.011;entryDx=0;entryDy=0;entryPerimeter=0;exitX=0.5;exitY=0;exitDx=0;exitDy=0;" edge="1" parent="1" source="GXpUL18i9NJPy3ACHUed-93" target="GXpUL18i9NJPy3ACHUed-92">
          <mxGeometry x="-1" y="3" relative="1" as="geometry">
            <mxPoint x="210" y="2370" as="sourcePoint" />
            <mxPoint x="370" y="2370" as="targetPoint" />
          </mxGeometry>
        </mxCell>
        <mxCell id="GXpUL18i9NJPy3ACHUed-115" value="Ambiente" style="swimlane;fontStyle=0;childLayout=stackLayout;horizontal=1;startSize=26;fillColor=none;horizontalStack=0;resizeParent=1;resizeParentMax=0;resizeLast=0;collapsible=1;marginBottom=0;whiteSpace=wrap;html=1;" vertex="1" parent="1">
          <mxGeometry x="780" y="2050" width="280" height="156" as="geometry" />
        </mxCell>
        <mxCell id="GXpUL18i9NJPy3ACHUed-116" value="+sistema_operativo:string" style="text;strokeColor=none;fillColor=none;align=left;verticalAlign=top;spacingLeft=4;spacingRight=4;overflow=hidden;rotatable=0;points=[[0,0.5],[1,0.5]];portConstraint=eastwest;whiteSpace=wrap;html=1;" vertex="1" parent="GXpUL18i9NJPy3ACHUed-115">
          <mxGeometry y="26" width="280" height="26" as="geometry" />
        </mxCell>
        <mxCell id="GXpUL18i9NJPy3ACHUed-119" value="+base_datos: string&amp;nbsp;" style="text;strokeColor=none;fillColor=none;align=left;verticalAlign=top;spacingLeft=4;spacingRight=4;overflow=hidden;rotatable=0;points=[[0,0.5],[1,0.5]];portConstraint=eastwest;whiteSpace=wrap;html=1;" vertex="1" parent="GXpUL18i9NJPy3ACHUed-115">
          <mxGeometry y="52" width="280" height="26" as="geometry" />
        </mxCell>
        <mxCell id="GXpUL18i9NJPy3ACHUed-118" value="+app: string" style="text;strokeColor=none;fillColor=none;align=left;verticalAlign=top;spacingLeft=4;spacingRight=4;overflow=hidden;rotatable=0;points=[[0,0.5],[1,0.5]];portConstraint=eastwest;whiteSpace=wrap;html=1;" vertex="1" parent="GXpUL18i9NJPy3ACHUed-115">
          <mxGeometry y="78" width="280" height="26" as="geometry" />
        </mxCell>
        <mxCell id="GXpUL18i9NJPy3ACHUed-120" value="&lt;div&gt;+ram: int&lt;/div&gt;" style="text;strokeColor=none;fillColor=none;align=left;verticalAlign=top;spacingLeft=4;spacingRight=4;overflow=hidden;rotatable=0;points=[[0,0.5],[1,0.5]];portConstraint=eastwest;whiteSpace=wrap;html=1;" vertex="1" parent="GXpUL18i9NJPy3ACHUed-115">
          <mxGeometry y="104" width="280" height="26" as="geometry" />
        </mxCell>
        <mxCell id="GXpUL18i9NJPy3ACHUed-136" value="&lt;div&gt;+verificarDespliegue()&lt;/div&gt;" style="text;strokeColor=none;fillColor=none;align=left;verticalAlign=top;spacingLeft=4;spacingRight=4;overflow=hidden;rotatable=0;points=[[0,0.5],[1,0.5]];portConstraint=eastwest;whiteSpace=wrap;html=1;" vertex="1" parent="GXpUL18i9NJPy3ACHUed-115">
          <mxGeometry y="130" width="280" height="26" as="geometry" />
        </mxCell>
        <mxCell id="GXpUL18i9NJPy3ACHUed-137" value="Persona" style="swimlane;fontStyle=0;childLayout=stackLayout;horizontal=1;startSize=26;fillColor=none;horizontalStack=0;resizeParent=1;resizeParentMax=0;resizeLast=0;collapsible=1;marginBottom=0;whiteSpace=wrap;html=1;" vertex="1" parent="1">
          <mxGeometry x="1280" y="2040" width="280" height="104" as="geometry" />
        </mxCell>
        <mxCell id="GXpUL18i9NJPy3ACHUed-138" value="+nombre:string" style="text;strokeColor=none;fillColor=none;align=left;verticalAlign=top;spacingLeft=4;spacingRight=4;overflow=hidden;rotatable=0;points=[[0,0.5],[1,0.5]];portConstraint=eastwest;whiteSpace=wrap;html=1;" vertex="1" parent="GXpUL18i9NJPy3ACHUed-137">
          <mxGeometry y="26" width="280" height="26" as="geometry" />
        </mxCell>
        <mxCell id="GXpUL18i9NJPy3ACHUed-139" value="+edad:int" style="text;strokeColor=none;fillColor=none;align=left;verticalAlign=top;spacingLeft=4;spacingRight=4;overflow=hidden;rotatable=0;points=[[0,0.5],[1,0.5]];portConstraint=eastwest;whiteSpace=wrap;html=1;" vertex="1" parent="GXpUL18i9NJPy3ACHUed-137">
          <mxGeometry y="52" width="280" height="26" as="geometry" />
        </mxCell>
        <mxCell id="GXpUL18i9NJPy3ACHUed-144" value="+compararEdad()" style="text;strokeColor=none;fillColor=none;align=left;verticalAlign=top;spacingLeft=4;spacingRight=4;overflow=hidden;rotatable=0;points=[[0,0.5],[1,0.5]];portConstraint=eastwest;whiteSpace=wrap;html=1;" vertex="1" parent="GXpUL18i9NJPy3ACHUed-137">
          <mxGeometry y="78" width="280" height="26" as="geometry" />
        </mxCell>
        <mxCell id="GXpUL18i9NJPy3ACHUed-145" value="Tren" style="swimlane;fontStyle=0;childLayout=stackLayout;horizontal=1;startSize=26;fillColor=none;horizontalStack=0;resizeParent=1;resizeParentMax=0;resizeLast=0;collapsible=1;marginBottom=0;whiteSpace=wrap;html=1;" vertex="1" parent="1">
          <mxGeometry x="1750" y="2040" width="280" height="86" as="geometry" />
        </mxCell>
        <mxCell id="GXpUL18i9NJPy3ACHUed-150" value="+ascelerar()" style="text;strokeColor=none;fillColor=none;align=left;verticalAlign=top;spacingLeft=4;spacingRight=4;overflow=hidden;rotatable=0;points=[[0,0.5],[1,0.5]];portConstraint=eastwest;whiteSpace=wrap;html=1;" vertex="1" parent="GXpUL18i9NJPy3ACHUed-145">
          <mxGeometry y="26" width="280" height="26" as="geometry" />
        </mxCell>
        <mxCell id="GXpUL18i9NJPy3ACHUed-151" value="&lt;div&gt;+frenar()&lt;/div&gt;" style="text;strokeColor=none;fillColor=none;align=left;verticalAlign=top;spacingLeft=4;spacingRight=4;overflow=hidden;rotatable=0;points=[[0,0.5],[1,0.5]];portConstraint=eastwest;whiteSpace=wrap;html=1;" vertex="1" parent="GXpUL18i9NJPy3ACHUed-145">
          <mxGeometry y="52" width="280" height="34" as="geometry" />
        </mxCell>
        <mxCell id="GXpUL18i9NJPy3ACHUed-152" value="Extends" style="endArrow=block;endSize=16;endFill=0;html=1;rounded=0;entryX=0.507;entryY=1.029;entryDx=0;entryDy=0;entryPerimeter=0;exitX=0.5;exitY=0;exitDx=0;exitDy=0;" edge="1" parent="1" source="GXpUL18i9NJPy3ACHUed-153" target="GXpUL18i9NJPy3ACHUed-151">
          <mxGeometry width="160" relative="1" as="geometry">
            <mxPoint x="1740" y="2190" as="sourcePoint" />
            <mxPoint x="1900" y="2190" as="targetPoint" />
          </mxGeometry>
        </mxCell>
        <mxCell id="GXpUL18i9NJPy3ACHUed-153" value="Tren" style="swimlane;fontStyle=0;childLayout=stackLayout;horizontal=1;startSize=26;fillColor=none;horizontalStack=0;resizeParent=1;resizeParentMax=0;resizeLast=0;collapsible=1;marginBottom=0;whiteSpace=wrap;html=1;" vertex="1" parent="1">
          <mxGeometry x="1750" y="2230" width="280" height="52" as="geometry" />
        </mxCell>
        <mxCell id="GXpUL18i9NJPy3ACHUed-154" value="+vagonLleno()" style="text;strokeColor=none;fillColor=none;align=left;verticalAlign=top;spacingLeft=4;spacingRight=4;overflow=hidden;rotatable=0;points=[[0,0.5],[1,0.5]];portConstraint=eastwest;whiteSpace=wrap;html=1;" vertex="1" parent="GXpUL18i9NJPy3ACHUed-153">
          <mxGeometry y="26" width="280" height="26" as="geometry" />
        </mxCell>
        <mxCell id="GXpUL18i9NJPy3ACHUed-156" value="1" style="text;html=1;align=center;verticalAlign=middle;resizable=0;points=[];autosize=1;strokeColor=none;fillColor=none;" vertex="1" parent="1">
          <mxGeometry x="25" y="1338" width="30" height="30" as="geometry" />
        </mxCell>
        <mxCell id="GXpUL18i9NJPy3ACHUed-157" value="2" style="text;html=1;align=center;verticalAlign=middle;resizable=0;points=[];autosize=1;strokeColor=none;fillColor=none;" vertex="1" parent="1">
          <mxGeometry x="635" y="1328" width="30" height="30" as="geometry" />
        </mxCell>
        <mxCell id="GXpUL18i9NJPy3ACHUed-158" value="3" style="text;html=1;align=center;verticalAlign=middle;resizable=0;points=[];autosize=1;strokeColor=none;fillColor=none;" vertex="1" parent="1">
          <mxGeometry x="1115" y="1318" width="30" height="30" as="geometry" />
        </mxCell>
        <mxCell id="GXpUL18i9NJPy3ACHUed-159" value="4" style="text;html=1;align=center;verticalAlign=middle;resizable=0;points=[];autosize=1;strokeColor=none;fillColor=none;" vertex="1" parent="1">
          <mxGeometry x="75" y="2078" width="30" height="30" as="geometry" />
        </mxCell>
        <mxCell id="GXpUL18i9NJPy3ACHUed-160" value="5" style="text;html=1;align=center;verticalAlign=middle;resizable=0;points=[];autosize=1;strokeColor=none;fillColor=none;" vertex="1" parent="1">
          <mxGeometry x="665" y="2058" width="30" height="30" as="geometry" />
        </mxCell>
        <mxCell id="GXpUL18i9NJPy3ACHUed-161" value="6" style="text;html=1;align=center;verticalAlign=middle;resizable=0;points=[];autosize=1;strokeColor=none;fillColor=none;" vertex="1" parent="1">
          <mxGeometry x="1175" y="2058" width="30" height="30" as="geometry" />
        </mxCell>
        <mxCell id="GXpUL18i9NJPy3ACHUed-162" value="7" style="text;html=1;align=center;verticalAlign=middle;resizable=0;points=[];autosize=1;strokeColor=none;fillColor=none;" vertex="1" parent="1">
          <mxGeometry x="1675" y="2038" width="30" height="30" as="geometry" />
        </mxCell>
      </root>
    </mxGraphModel>
  </diagram>
</mxfile>
